<!--?xml version="1.0" standalone="no"?-->
              <svg id="sw-js-blob-svg" viewBox="0 0 100 100" xmlns="http://www.w3.org/2000/svg" version="1.1">
                    <defs> 
                        <linearGradient id="sw-gradient" x1="0" x2="1" y1="1" y2="0">
                            <stop id="stop1" stop-color="rgba(253.933, 156.356, 225.975, 1)" offset="0%"></stop>
                            <stop id="stop2" stop-color="rgba(188.686, 251.63, 255, 0.2)" offset="100%"></stop>
                        </linearGradient>
                    </defs>
                <path fill="url(#sw-gradient)" d="M26.4,-32.5C32.6,-26.2,35.1,-16.4,35.6,-7.2C36,1.9,34.5,10.4,30.7,18.4C26.9,26.3,20.9,33.7,12.8,37.9C4.6,42,-5.7,43,-14.8,40C-24,37,-32,30,-37.5,21.3C-43,12.5,-45.9,2,-44,-7.5C-42,-17,-35.2,-25.4,-27.1,-31.5C-18.9,-37.5,-9.5,-41.1,0.3,-41.5C10.1,-41.8,20.1,-38.9,26.4,-32.5Z" width="100%" height="100%" transform="translate(50 50)" stroke-width="0" style="transition: all 0.3s ease 0s;"></path>
              </svg>